<svg width="420" height="106" viewBox="0 0 420 106" fill="none" xmlns="http://www.w3.org/2000/svg">
<path d="M181.875 102.498L170.313 70.9362L153.75 25H152.813L136.563 69.6863C132.813 66.5613 127.813 64.6864 121.25 63.7489L119.688 63.4364L121.25 63.1239C131.875 61.249 139.375 54.3742 139.375 46.2494C139.375 34.9997 128.75 27.1874 113.75 27.1874H80.625V28.4374H90.9375V85.9358L68.75 25H67.8125L39.6875 102.185C39.375 102.185 39.0625 102.185 38.4375 102.185C37.8125 102.185 37.1875 102.185 36.875 102.185H14.6875L58.125 27.1874H4.6875V50.9368H5.625C5.625 39.6871 12.1875 28.4374 26.875 28.4374H43.4375L0 103.435H59.375V80.9359H58.4375C58.4375 90.6232 52.8125 99.9979 40.9375 102.185L50 77.811H75.625L84.6875 102.81H76.25V103.748H110.313V102.81H102.5V64.3739H113.125C124.063 64.3739 130.313 69.0613 130.313 77.4985V84.3734C130.313 84.9983 130.313 85.6233 130.313 86.5608L124.688 102.498H118.125V103.435H132.188V102.498H125.625L130.313 89.3732V91.2482C131.25 96.5605 133.125 100.31 136.25 102.81L136.563 103.123C139.063 104.685 142.188 105.623 145.625 105.623C150.313 105.623 153.125 104.373 155.625 101.873L155 101.248C152.813 103.435 150.625 104.373 148.438 104.373C144.063 104.373 142.188 99.3729 142.188 94.3731V84.9983C142.188 82.4984 141.875 79.9985 140.938 78.1235H160L169.063 103.123H160.313V104.06H190V103.123L181.875 102.498ZM50.3125 76.5611L62.8125 42.187L75.3125 76.5611H50.3125ZM102.5 63.4364V28.7499H110.625C121.563 28.7499 127.188 34.6872 127.188 46.8744C127.188 59.999 123.75 63.4364 113.125 63.4364H102.5ZM141.25 76.5611C140.313 74.6861 139.063 72.8112 137.813 71.2487L137.5 70.9362L147.813 42.187L160.313 76.5611H141.25Z" fill="black"/>
<path d="M419.062 81.2484C419.062 92.8106 412.188 102.498 395 102.498H382.188V64.6864H386.875C395.625 64.6864 400.625 69.3738 400.625 76.5611H401.563V51.2493H400.625C400.625 58.7491 395.625 63.4364 386.875 63.4364H382.188V28.4374H395.313C408.75 28.4374 414.063 36.8747 414.063 46.8744H415V27.4999H347.188L327.188 86.2483L305.312 27.4999H282.813V28.7499H292.5V57.1866C289.063 39.3746 275.312 25.9375 258.438 25.9375C241.563 25.9375 227.813 39.0621 224.375 56.8741V28.7499H234.062V27.4999H202.812V28.7499H212.5V63.4364H181.563V28.4374H191.25V27.4999H160V28.7499H169.688V70.9362L181.25 102.498V64.3739H212.188V102.498H202.5V103.435H233.75V102.498H224.062V74.0611C227.5 91.8731 241.25 104.998 258.125 104.998C275 104.998 289.063 91.5607 292.188 73.7486V102.498H280.938V103.435H304.375V102.498H293.125V28.7499L321.25 105.31H321.562L347.188 30.9373V102.185H337.188V103.123H420V80.9359H419.062V81.2484ZM271.875 99.6854C268.125 102.81 263.75 104.06 258.125 104.06C252.5 104.06 248.125 102.81 244.375 99.6854C238.438 94.6856 235.313 84.3734 235.313 65.6239C235.313 46.8744 238.438 36.5622 244.375 31.5623C248.125 28.4374 252.5 27.1874 258.125 27.1874C263.75 27.1874 268.125 28.4374 271.875 31.5623C277.5 36.2497 280.938 46.5619 280.938 65.3114C280.938 84.3734 277.5 94.6856 271.875 99.6854ZM370.938 102.498H359.062V28.7499H370.938V102.498Z" fill="black"/>
</svg>
